<?xml version="1.0" encoding="UTF-8" standalone="no"?>
<svg
   width="550"
   height="395"
   overflow="hidden"
   version="1.1"
   id="svg224"
   sodipodi:docname="aws_iam_policies.svg"
   inkscape:version="1.2 (dc2aedaf03, 2022-05-15)"
   xmlns:inkscape="http://www.inkscape.org/namespaces/inkscape"
   xmlns:sodipodi="http://sodipodi.sourceforge.net/DTD/sodipodi-0.dtd"
   xmlns="http://www.w3.org/2000/svg"
   xmlns:svg="http://www.w3.org/2000/svg">
  <sodipodi:namedview
     id="namedview226"
     pagecolor="#ffffff"
     bordercolor="#000000"
     borderopacity="0.25"
     inkscape:showpageshadow="2"
     inkscape:pageopacity="0.0"
     inkscape:pagecheckerboard="0"
     inkscape:deskcolor="#d1d1d1"
     showgrid="false"
     inkscape:zoom="1.3111111"
     inkscape:cx="348.94068"
     inkscape:cy="333.30509"
     inkscape:window-width="2560"
     inkscape:window-height="1494"
     inkscape:window-x="-11"
     inkscape:window-y="-11"
     inkscape:window-maximized="1"
     inkscape:current-layer="svg224" />
  <defs
     id="defs68">
    <clipPath
       id="clip1">
      <rect
         x="493"
         y="111"
         width="96"
         height="96"
         id="rect5" />
    </clipPath>
    <clipPath
       id="clip2">
      <rect
         x="493"
         y="111"
         width="96"
         height="96"
         id="rect8" />
    </clipPath>
    <clipPath
       id="clip3">
      <rect
         x="493"
         y="111"
         width="96"
         height="96"
         id="rect11" />
    </clipPath>
    <clipPath
       id="clip4">
      <rect
         x="493"
         y="249"
         width="96"
         height="96"
         id="rect14" />
    </clipPath>
    <clipPath
       id="clip5">
      <rect
         x="493"
         y="249"
         width="96"
         height="96"
         id="rect17" />
    </clipPath>
    <clipPath
       id="clip6">
      <rect
         x="493"
         y="249"
         width="96"
         height="96"
         id="rect20" />
    </clipPath>
    <clipPath
       id="clip7">
      <rect
         x="493"
         y="381"
         width="96"
         height="96"
         id="rect23" />
    </clipPath>
    <clipPath
       id="clip8">
      <rect
         x="493"
         y="381"
         width="96"
         height="96"
         id="rect26" />
    </clipPath>
    <clipPath
       id="clip9">
      <rect
         x="493"
         y="381"
         width="96"
         height="96"
         id="rect29" />
    </clipPath>
    <clipPath
       id="clip10">
      <rect
         x="236"
         y="383"
         width="85"
         height="85"
         id="rect32" />
    </clipPath>
    <clipPath
       id="clip11">
      <rect
         x="236"
         y="383"
         width="85"
         height="85"
         id="rect35" />
    </clipPath>
    <clipPath
       id="clip12">
      <rect
         x="236"
         y="383"
         width="85"
         height="85"
         id="rect38" />
    </clipPath>
    <clipPath
       id="clip13">
      <rect
         x="131"
         y="143"
         width="68"
         height="68"
         id="rect41" />
    </clipPath>
    <clipPath
       id="clip14">
      <rect
         x="131"
         y="143"
         width="68"
         height="68"
         id="rect44" />
    </clipPath>
    <clipPath
       id="clip15">
      <rect
         x="131"
         y="143"
         width="68"
         height="68"
         id="rect47" />
    </clipPath>
    <clipPath
       id="clip16">
      <rect
         x="131"
         y="281"
         width="68"
         height="68"
         id="rect50" />
    </clipPath>
    <clipPath
       id="clip17">
      <rect
         x="131"
         y="281"
         width="68"
         height="68"
         id="rect53" />
    </clipPath>
    <clipPath
       id="clip18">
      <rect
         x="131"
         y="281"
         width="68"
         height="68"
         id="rect56" />
    </clipPath>
    <clipPath
       id="clip19">
      <rect
         x="195"
         y="281"
         width="68"
         height="68"
         id="rect59" />
    </clipPath>
    <clipPath
       id="clip20">
      <rect
         x="195"
         y="281"
         width="68"
         height="68"
         id="rect62" />
    </clipPath>
    <clipPath
       id="clip21">
      <rect
         x="195"
         y="281"
         width="68"
         height="68"
         id="rect65" />
    </clipPath>
    <clipPath
       clipPathUnits="userSpaceOnUse"
       id="clipPath1041">
      <rect
         x="-512.25"
         y="-297.5"
         width="1280"
         height="720"
         id="rect1043"
         transform="scale(-1,1)" />
    </clipPath>
    <clipPath
       clipPathUnits="userSpaceOnUse"
       id="clipPath1045">
      <rect
         x="-512.25"
         y="-159.5"
         width="1280"
         height="720"
         id="rect1047"
         transform="scale(-1,1)" />
    </clipPath>
    <clipPath
       clipPathUnits="userSpaceOnUse"
       id="clipPath1049">
      <rect
         x="-513.13898"
         y="-428.5"
         width="1280"
         height="720"
         id="rect1051"
         transform="scale(-1,1)" />
    </clipPath>
  </defs>
  <path
     d="m 43.336385,62.475939 c 0,-2.43232 1.997108,-4.404048 4.460896,-4.404048 H 156.91748 c 2.46378,0 4.46089,1.971728 4.46089,4.404048 v 17.61613 c 0,2.43233 -1.99711,4.40405 -4.46089,4.40405 H 47.797281 c -2.463788,0 -4.460896,-1.97172 -4.460896,-4.40405 z"
     stroke="#000000"
     stroke-width="2.04571"
     stroke-miterlimit="8"
     fill="none"
     fill-rule="evenodd"
     id="path72" />
  <text
     font-family="Calibri, Calibri_MSFontService, sans-serif"
     font-weight="400"
     font-size="16.3657px"
     id="text74"
     x="50.256905"
     y="76.515831"
     transform="scale(1.0064323,0.99360881)"
     style="stroke-width:0.681904">AWS account 1</text>
  <g
     clip-path="url(#clip1)"
     id="g98"
     transform="matrix(0.68629062,0,0,0.6775461,-40.734212,20.468015)">
    <g
       clip-path="url(#clip2)"
       id="g96">
      <g
         clip-path="url(#clip3)"
         id="g94">
        <path
           d="m 526,138.586 -3.293,-3.293 -1.414,1.414 4.707,4.707 9.707,-9.707 -1.414,-1.414 z"
           id="path76" />
        <path
           d="m 542,136 h 19 v 2 h -19 z"
           id="path78" />
        <path
           d="m 526,153.586 -3.293,-3.293 -1.414,1.414 4.707,4.707 9.707,-9.707 -1.414,-1.414 z"
           id="path80" />
        <path
           d="m 542,151 h 19 v 2 h -19 z"
           id="path82" />
        <path
           d="m 526,168.586 -3.293,-3.293 -1.414,1.414 4.707,4.707 9.707,-9.707 -1.414,-1.414 z"
           id="path84" />
        <path
           d="m 542,166 h 19 v 2 h -19 z"
           id="path86" />
        <path
           d="m 526,183.586 -3.293,-3.293 -1.414,1.414 4.707,4.707 9.707,-9.707 -1.414,-1.414 z"
           id="path88" />
        <path
           d="m 542,181 h 19 v 2 h -19 z"
           id="path90" />
        <path
           d="m 511,199 h 60 v -80 h -60 z m 2,-78 h 56 v 76 h -56 z"
           id="path92" />
      </g>
    </g>
  </g>
  <g
     clip-path="url(#clip4)"
     id="g122"
     transform="matrix(0.68629062,0,0,0.6775461,-40.734212,20.468015)">
    <g
       clip-path="url(#clip5)"
       id="g120">
      <g
         clip-path="url(#clip6)"
         id="g118">
        <path
           d="m 526,276.586 -3.293,-3.293 -1.414,1.414 4.707,4.707 9.707,-9.707 -1.414,-1.414 z"
           id="path100" />
        <path
           d="m 542,274 h 19 v 2 h -19 z"
           id="path102" />
        <path
           d="m 526,291.586 -3.293,-3.293 -1.414,1.414 4.707,4.707 9.707,-9.707 -1.414,-1.414 z"
           id="path104" />
        <path
           d="m 542,289 h 19 v 2 h -19 z"
           id="path106" />
        <path
           d="m 526,306.586 -3.293,-3.293 -1.414,1.414 4.707,4.707 9.707,-9.707 -1.414,-1.414 z"
           id="path108" />
        <path
           d="m 542,304 h 19 v 2 h -19 z"
           id="path110" />
        <path
           d="m 526,321.586 -3.293,-3.293 -1.414,1.414 4.707,4.707 9.707,-9.707 -1.414,-1.414 z"
           id="path112" />
        <path
           d="m 542,319 h 19 v 2 h -19 z"
           id="path114" />
        <path
           d="m 511,337 h 60 v -80 h -60 z m 2,-78 h 56 v 76 h -56 z"
           id="path116" />
      </g>
    </g>
  </g>
  <g
     clip-path="url(#clip7)"
     id="g146"
     transform="matrix(0.68629062,0,0,0.6775461,-40.734212,20.468015)">
    <g
       clip-path="url(#clip8)"
       id="g144">
      <g
         clip-path="url(#clip9)"
         id="g142">
        <path
           d="m 526,408.586 -3.293,-3.293 -1.414,1.414 4.707,4.707 9.707,-9.707 -1.414,-1.414 z"
           id="path124" />
        <path
           d="m 542,406 h 19 v 2 h -19 z"
           id="path126" />
        <path
           d="m 526,423.586 -3.293,-3.293 -1.414,1.414 4.707,4.707 9.707,-9.707 -1.414,-1.414 z"
           id="path128" />
        <path
           d="m 542,421 h 19 v 2 h -19 z"
           id="path130" />
        <path
           d="m 526,438.586 -3.293,-3.293 -1.414,1.414 4.707,4.707 9.707,-9.707 -1.414,-1.414 z"
           id="path132" />
        <path
           d="m 542,436 h 19 v 2 h -19 z"
           id="path134" />
        <path
           d="m 526,453.586 -3.293,-3.293 -1.414,1.414 4.707,4.707 9.707,-9.707 -1.414,-1.414 z"
           id="path136" />
        <path
           d="m 542,451 h 19 v 2 h -19 z"
           id="path138" />
        <path
           d="m 511,469 h 60 v -80 h -60 z m 2,-78 h 56 v 76 h -56 z"
           id="path140" />
      </g>
    </g>
  </g>
  <rect
     x="315.10748"
     y="231.52364"
     width="30.88308"
     height="10.163192"
     stroke="#ffffff"
     stroke-width="0.909203"
     stroke-miterlimit="8"
     fill="#ffffff"
     id="rect148" />
  <rect
     x="315.10748"
     y="310.79657"
     width="30.88308"
     height="21.003929"
     stroke="#ffffff"
     stroke-width="0.909203"
     stroke-miterlimit="8"
     fill="#ffffff"
     id="rect150" />
  <path
     d="m 33.042029,97.023949 c 0,-6.9191 5.681111,-12.52776 12.689515,-12.52776 H 256.43648 c 7.0084,0 12.68951,5.60866 12.68951,12.52776 V 359.24786 c 0,6.9191 -5.68111,12.52783 -12.68951,12.52783 H 45.731544 c -7.008404,0 -12.689515,-5.60873 -12.689515,-12.52783 z"
     stroke="#000000"
     stroke-width="2.04571"
     stroke-miterlimit="8"
     fill="none"
     fill-rule="evenodd"
     id="path152" />
  <text
     font-family="Calibri, Calibri_MSFontService, sans-serif"
     font-weight="400"
     font-size="16.3657px"
     id="text160"
     x="362.24304"
     y="133.79578"
     transform="scale(1.0064323,0.99360881)"
     style="stroke-width:0.681904">AWS admin access<tspan
   font-size="16.3657px"
   x="362.24301"
   y="228.58049"
   id="tspan154"
   style="stroke-width:0.473967">AWS power user access</tspan><tspan
   font-size="16.3657px"
   x="362.24304"
   y="305.63568"
   id="tspan156"
   style="stroke-width:0.473967">AWS shiny app</tspan><tspan
   font-size="16.3657px"
   x="362.24304"
   y="325.41095"
   id="tspan158"
   style="stroke-width:0.473967">read only access</tspan></text>
  <path
     d="m 41.963811,98.141899 c 0,-3.79426 3.115751,-6.87032 6.958985,-6.87032 H 231.28393 c 3.84322,0 6.95898,3.07606 6.95898,6.87032 v 68.242461 c 0,3.79427 -3.11576,6.87032 -6.95898,6.87032 H 48.922796 c -3.843234,0 -6.958985,-3.07605 -6.958985,-6.87032 z"
     stroke="#000000"
     stroke-width="2.04571"
     stroke-miterlimit="8"
     stroke-dasharray="9, 3"
     fill="none"
     fill-rule="evenodd"
     id="path162" />
  <text
     font-family="Calibri, Calibri_MSFontService, sans-serif"
     font-weight="400"
     font-size="16.3657px"
     id="text164"
     x="55.704643"
     y="112.65676"
     transform="scale(1.0064323,0.99360881)"
     style="stroke-width:0.681904">Admin group</text>
  <path
     d="m 41.963811,190.28819 c 0,-3.79426 3.115751,-6.87032 6.958985,-6.87032 H 231.28393 c 3.84322,0 6.95898,3.07606 6.95898,6.87032 v 68.24244 c 0,3.79426 -3.11576,6.87032 -6.95898,6.87032 H 48.922796 c -3.843234,0 -6.958985,-3.07606 -6.958985,-6.87032 z"
     stroke="#000000"
     stroke-width="2.04571"
     stroke-miterlimit="8"
     stroke-dasharray="9, 3"
     fill="none"
     fill-rule="evenodd"
     id="path166" />
  <text
     font-family="Calibri, Calibri_MSFontService, sans-serif"
     font-weight="400"
     font-size="16.3657px"
     id="text168"
     x="55.704643"
     y="206.07764"
     transform="scale(1.0064323,0.99360881)"
     style="stroke-width:0.681904">Power user group</text>
  <g
     clip-path="url(#clip10)"
     id="g182"
     transform="matrix(0.68629062,0,0,0.6775461,-40.734212,20.468015)">
    <g
       clip-path="url(#clip11)"
       id="g180">
      <g
         clip-path="url(#clip12)"
         id="g178">
        <path
           d="m 304.177,437.879 0.004,-31.869 h -51.357 v 31.884 z m -49.582,-30.098 h 47.815 l -0.004,28.327 -47.811,0.015 z"
           id="path170" />
        <path
           d="m 250.168,405.124 c 0.001,-0.978 0.793,-1.77 1.77,-1.771 h 53.128 c 0.977,10e-4 1.77,0.793 1.771,1.771 v 36.314 h 1.771 v -36.314 c -0.002,-1.956 -1.587,-3.54 -3.542,-3.542 h -53.128 c -1.955,0.002 -3.539,1.586 -3.541,3.542 v 36.314 h 1.771 z"
           id="path172" />
        <path
           d="m 282.93,444.077 v 1.771 h -8.855 v -1.771 h -36.304 v 1.77 c 0.002,2.444 1.983,4.425 4.427,4.428 h 72.608 c 2.444,-0.003 4.425,-1.984 4.428,-4.428 v -1.77 z m 31.876,4.427 h -72.608 c -1.466,-0.002 -2.654,-1.19 -2.656,-2.656 h 32.762 c -0.033,0.945 0.707,1.738 1.652,1.771 0.04,10e-4 0.079,10e-4 0.119,0 h 8.855 c 0.945,0.032 1.738,-0.708 1.771,-1.653 10e-4,-0.039 10e-4,-0.079 0,-0.118 h 32.762 c -0.003,1.466 -1.191,2.654 -2.657,2.656 z"
           id="path174" />
        <path
           d="m 278.5,410.448 c -6.357,0 -11.51,5.153 -11.51,11.51 0,6.357 5.153,11.511 11.51,11.511 6.357,0 11.51,-5.154 11.51,-11.511 -0.007,-6.354 -5.156,-11.503 -11.51,-11.51 z m 9.695,10.625 h -3.116 c -0.122,-3.173 -1.443,-6.182 -3.697,-8.418 3.762,1.173 6.45,4.494 6.813,8.418 z m -10.58,-7.769 v 7.769 h -3.919 c 0.225,-3.339 1.708,-6.251 3.919,-7.769 z m 0,9.54 v 7.77 c -2.209,-1.521 -3.693,-4.442 -3.918,-7.77 z m 1.77,7.768 v -7.768 h 3.918 c -0.225,3.324 -1.711,6.247 -3.918,7.768 z m 0,-9.539 v -7.768 c 2.207,1.521 3.693,4.444 3.918,7.768 z m -3.783,-8.414 c -2.25,2.237 -3.566,5.244 -3.681,8.414 h -3.116 c 0.363,-3.918 3.042,-7.236 6.797,-8.414 z m -6.797,10.185 h 3.116 c 0.121,3.172 1.441,6.18 3.694,8.417 -3.761,-1.174 -6.447,-4.494 -6.81,-8.417 z m 12.578,8.418 c 2.253,-2.237 3.574,-5.245 3.696,-8.418 h 3.116 c -0.363,3.924 -3.05,7.244 -6.812,8.418 z"
           id="path176" />
      </g>
    </g>
  </g>
  <text
     font-family="Calibri, Calibri_MSFontService, sans-serif"
     font-weight="400"
     font-size="16.3657px"
     id="text184"
     x="94.185204"
     y="343.14044"
     transform="scale(1.0064323,0.99360881)"
     style="stroke-width:0.681904">Public access role</text>
  <path
     d="M 7.30448e-7,-1.33333 179.639,-1.33323 V 1.33343 L -7.30448e-7,1.33333 Z M 178.306,-6.66657 191.639,1.04987e-4 178.306,6.66676 Z"
     fill="#4472c4"
     transform="matrix(-0.68629062,0,0,0.6775461,311.42826,310.79654)"
     id="path186"
     clip-path="url(#clipPath1049)" />
  <path
     d="M 1.32371e-6,-1.33333 93.75,-1.33324 V 1.33343 L -1.32371e-6,1.33333 Z M 92.4167,-6.66657 105.75,1.04987e-4 92.4167,6.66676 Z"
     fill="#4472c4"
     transform="matrix(-0.68629062,0,0,0.6775461,310.81815,128.53662)"
     id="path188"
     clip-path="url(#clipPath1045)" />
  <path
     d="M 1.32371e-6,-1.33333 93.75,-1.33324 V 1.33343 L -1.32371e-6,1.33333 Z M 92.4167,-6.66657 105.75,1.04987e-4 92.4167,6.66676 Z"
     fill="#4472c4"
     transform="matrix(-0.68629062,0,0,0.6775461,310.81815,222.038)"
     id="path190"
     clip-path="url(#clipPath1041)" />
  <g
     clip-path="url(#clip13)"
     id="g200"
     transform="matrix(0.68629062,0,0,0.6775461,-40.734212,20.468015)">
    <g
       clip-path="url(#clip14)"
       id="g198">
      <g
         clip-path="url(#clip15)"
         id="g196">
        <path
           d="m 165,154.333 c 5.477,0 9.917,4.44 9.917,9.917 0,5.477 -4.44,9.917 -9.917,9.917 -5.477,0 -9.917,-4.44 -9.917,-9.917 0.006,-5.475 4.442,-9.911 9.917,-9.917 m 0,-1.416 c -6.259,0 -11.333,5.074 -11.333,11.333 0,6.259 5.074,11.333 11.333,11.333 6.259,0 11.333,-5.074 11.333,-11.333 0,-6.259 -5.074,-11.333 -11.333,-11.333 z"
           stroke="#000000"
           stroke-width="1.69154"
           id="path192" />
        <path
           d="m 187.667,201.083 h -1.417 v -10.979 c -0.034,-1.504 -0.743,-2.914 -1.93,-3.838 -3.107,-2.384 -6.664,-4.114 -10.457,-5.087 -2.871,-0.884 -5.858,-1.337 -8.863,-1.346 -3.004,0.052 -5.987,0.505 -8.871,1.346 -3.754,1.1 -7.295,2.824 -10.475,5.1 -1.176,0.926 -1.874,2.329 -1.904,3.825 v 10.979 h -1.417 v -10.979 c 0.035,-1.935 0.94,-3.751 2.463,-4.945 3.323,-2.385 7.025,-4.191 10.951,-5.342 3.008,-0.876 6.12,-1.347 9.253,-1.4 3.139,0.007 6.26,0.48 9.261,1.401 3.974,1.024 7.699,2.843 10.95,5.346 1.52,1.194 2.421,3.008 2.456,4.94 z"
           stroke="#000000"
           stroke-width="1.69154"
           id="path194" />
      </g>
    </g>
  </g>
  <g
     clip-path="url(#clip16)"
     id="g210"
     transform="matrix(0.68629062,0,0,0.6775461,-40.734212,20.468015)">
    <g
       clip-path="url(#clip17)"
       id="g208">
      <g
         clip-path="url(#clip18)"
         id="g206">
        <path
           d="m 165,292.333 c 5.477,0 9.917,4.44 9.917,9.917 0,5.477 -4.44,9.917 -9.917,9.917 -5.477,0 -9.917,-4.44 -9.917,-9.917 0.006,-5.475 4.442,-9.911 9.917,-9.917 m 0,-1.416 c -6.259,0 -11.333,5.074 -11.333,11.333 0,6.259 5.074,11.333 11.333,11.333 6.259,0 11.333,-5.074 11.333,-11.333 0,-6.259 -5.074,-11.333 -11.333,-11.333 z"
           stroke="#000000"
           stroke-width="1.69154"
           id="path202" />
        <path
           d="m 187.667,339.083 h -1.417 v -10.979 c -0.034,-1.504 -0.743,-2.914 -1.93,-3.838 -3.107,-2.384 -6.664,-4.114 -10.457,-5.087 -2.871,-0.884 -5.858,-1.337 -8.863,-1.346 -3.004,0.052 -5.987,0.505 -8.871,1.346 -3.754,1.1 -7.295,2.824 -10.475,5.1 -1.176,0.926 -1.874,2.329 -1.904,3.825 v 10.979 h -1.417 v -10.979 c 0.035,-1.935 0.94,-3.751 2.463,-4.945 3.323,-2.385 7.025,-4.191 10.951,-5.342 3.008,-0.876 6.12,-1.347 9.253,-1.4 3.139,0.007 6.26,0.48 9.261,1.401 3.974,1.024 7.699,2.842 10.95,5.346 1.52,1.194 2.421,3.008 2.456,4.94 z"
           stroke="#000000"
           stroke-width="1.69154"
           id="path204" />
      </g>
    </g>
  </g>
  <g
     clip-path="url(#clip19)"
     id="g220"
     transform="matrix(0.68629062,0,0,0.6775461,-40.734212,20.468015)">
    <g
       clip-path="url(#clip20)"
       id="g218">
      <g
         clip-path="url(#clip21)"
         id="g216">
        <path
           d="m 229,292.333 c 5.477,0 9.917,4.44 9.917,9.917 0,5.477 -4.44,9.917 -9.917,9.917 -5.477,0 -9.917,-4.44 -9.917,-9.917 0.006,-5.475 4.442,-9.911 9.917,-9.917 m 0,-1.416 c -6.259,0 -11.333,5.074 -11.333,11.333 0,6.259 5.074,11.333 11.333,11.333 6.259,0 11.333,-5.074 11.333,-11.333 0,-6.259 -5.074,-11.333 -11.333,-11.333 z"
           stroke="#000000"
           stroke-width="1.69154"
           id="path212" />
        <path
           d="m 251.667,339.083 h -1.417 v -10.979 c -0.034,-1.504 -0.743,-2.914 -1.93,-3.838 -3.107,-2.384 -6.664,-4.114 -10.457,-5.087 -2.871,-0.884 -5.858,-1.337 -8.863,-1.346 -3.004,0.052 -5.987,0.505 -8.871,1.346 -3.754,1.1 -7.295,2.824 -10.475,5.1 -1.176,0.926 -1.874,2.329 -1.904,3.825 v 10.979 h -1.417 v -10.979 c 0.035,-1.935 0.94,-3.751 2.463,-4.945 3.323,-2.385 7.025,-4.191 10.951,-5.342 3.008,-0.876 6.12,-1.347 9.253,-1.4 3.139,0.007 6.26,0.48 9.261,1.401 3.974,1.024 7.699,2.842 10.95,5.346 1.52,1.194 2.421,3.008 2.456,4.94 z"
           stroke="#000000"
           stroke-width="1.69154"
           id="path214" />
      </g>
    </g>
  </g>
  <text
     font-family="Calibri, Calibri_MSFontService, sans-serif"
     font-weight="400"
     font-size="16.3657px"
     id="text74-1"
     x="164.30019"
     y="35.107319"
     transform="scale(1.0064323,0.99360881)"
     style="font-size:18.6667px;stroke-width:0.681904">Using AWS managed policies</text>
</svg>
