<?xml version="1.0" encoding="UTF-8" standalone="no"?>
<svg
   width="900"
   height="640"
   overflow="hidden"
   version="1.1"
   id="svg228"
   sodipodi:docname="aws_s3_access.svg"
   inkscape:version="1.2 (dc2aedaf03, 2022-05-15)"
   xmlns:inkscape="http://www.inkscape.org/namespaces/inkscape"
   xmlns:sodipodi="http://sodipodi.sourceforge.net/DTD/sodipodi-0.dtd"
   xmlns="http://www.w3.org/2000/svg"
   xmlns:svg="http://www.w3.org/2000/svg">
  <sodipodi:namedview
     id="namedview230"
     pagecolor="#ffffff"
     bordercolor="#000000"
     borderopacity="0.25"
     inkscape:showpageshadow="2"
     inkscape:pageopacity="0.0"
     inkscape:pagecheckerboard="0"
     inkscape:deskcolor="#d1d1d1"
     showgrid="false"
     inkscape:zoom="1.3111111"
     inkscape:cx="542.6695"
     inkscape:cy="439.32204"
     inkscape:window-width="2560"
     inkscape:window-height="1494"
     inkscape:window-x="-11"
     inkscape:window-y="-11"
     inkscape:window-maximized="1"
     inkscape:current-layer="svg228"
     showguides="true" />
  <defs
     id="defs68">
    <clipPath
       id="clip1">
      <rect
         x="575"
         y="385"
         width="75"
         height="77"
         id="rect5" />
    </clipPath>
    <clipPath
       id="clip2">
      <rect
         x="575"
         y="385"
         width="75"
         height="77"
         id="rect8" />
    </clipPath>
    <clipPath
       id="clip3">
      <rect
         x="575"
         y="385"
         width="75"
         height="77"
         id="rect11" />
    </clipPath>
    <clipPath
       id="clip4">
      <rect
         x="229"
         y="316"
         width="156"
         height="155"
         id="rect14" />
    </clipPath>
    <clipPath
       id="clip5">
      <rect
         x="229"
         y="316"
         width="156"
         height="155"
         id="rect17" />
    </clipPath>
    <clipPath
       id="clip6">
      <rect
         x="229"
         y="316"
         width="156"
         height="155"
         id="rect20" />
    </clipPath>
    <clipPath
       id="clip7">
      <rect
         x="229"
         y="83"
         width="156"
         height="155"
         id="rect23" />
    </clipPath>
    <clipPath
       id="clip8">
      <rect
         x="229"
         y="83"
         width="156"
         height="155"
         id="rect26" />
    </clipPath>
    <clipPath
       id="clip9">
      <rect
         x="229"
         y="83"
         width="156"
         height="155"
         id="rect29" />
    </clipPath>
    <clipPath
       id="clip10">
      <rect
         x="229"
         y="516"
         width="156"
         height="155"
         id="rect32" />
    </clipPath>
    <clipPath
       id="clip11">
      <rect
         x="229"
         y="516"
         width="156"
         height="155"
         id="rect35" />
    </clipPath>
    <clipPath
       id="clip12">
      <rect
         x="229"
         y="516"
         width="156"
         height="155"
         id="rect38" />
    </clipPath>
    <clipPath
       id="clip13">
      <rect
         x="578"
         y="311"
         width="68"
         height="68"
         id="rect41" />
    </clipPath>
    <clipPath
       id="clip14">
      <rect
         x="578"
         y="311"
         width="68"
         height="68"
         id="rect44" />
    </clipPath>
    <clipPath
       id="clip15">
      <rect
         x="578"
         y="311"
         width="68"
         height="68"
         id="rect47" />
    </clipPath>
    <clipPath
       id="clip16">
      <rect
         x="882"
         y="490"
         width="75"
         height="77"
         id="rect50" />
    </clipPath>
    <clipPath
       id="clip17">
      <rect
         x="882"
         y="490"
         width="75"
         height="77"
         id="rect53" />
    </clipPath>
    <clipPath
       id="clip18">
      <rect
         x="882"
         y="490"
         width="75"
         height="77"
         id="rect56" />
    </clipPath>
    <clipPath
       id="clip19">
      <rect
         x="885"
         y="415"
         width="68"
         height="68"
         id="rect59" />
    </clipPath>
    <clipPath
       id="clip20">
      <rect
         x="885"
         y="415"
         width="68"
         height="68"
         id="rect62" />
    </clipPath>
    <clipPath
       id="clip21">
      <rect
         x="885"
         y="415"
         width="68"
         height="68"
         id="rect65" />
    </clipPath>
  </defs>
  <g
     clip-path="url(#clip1)"
     id="g94"
     transform="translate(-136.52542,-35.084746)">
    <g
       clip-path="url(#clip2)"
       id="g92">
      <g
         clip-path="url(#clip3)"
         id="g90">
        <path
           d="m 25.7812,21.5516 -2.5726,-2.5727 -1.1047,1.1047 3.6773,3.6773 7.5836,-7.5836 -1.1046,-1.1046 z"
           fill="#4472c4"
           transform="matrix(1,0,0,1.02667,575,385)"
           id="path72" />
        <path
           d="M 38.2812,19.5312 H 53.125 v 1.5626 H 38.2812 Z"
           fill="#4472c4"
           transform="matrix(1,0,0,1.02667,575,385)"
           id="path74" />
        <path
           d="m 25.7812,33.2703 -2.5726,-2.5726 -1.1047,1.1046 3.6773,3.6774 7.5836,-7.5836 -1.1046,-1.1047 z"
           fill="#4472c4"
           transform="matrix(1,0,0,1.02667,575,385)"
           id="path76" />
        <path
           d="M 38.2812,31.25 H 53.125 v 1.5625 H 38.2812 Z"
           fill="#4472c4"
           transform="matrix(1,0,0,1.02667,575,385)"
           id="path78" />
        <path
           d="m 25.7812,44.9891 -2.5726,-2.5727 -1.1047,1.1047 3.6773,3.6773 7.5836,-7.5836 -1.1046,-1.1046 z"
           fill="#4472c4"
           transform="matrix(1,0,0,1.02667,575,385)"
           id="path80" />
        <path
           d="M 38.2812,42.9688 H 53.125 v 1.5624 H 38.2812 Z"
           fill="#4472c4"
           transform="matrix(1,0,0,1.02667,575,385)"
           id="path82" />
        <path
           d="m 25.7812,56.7078 -2.5726,-2.5726 -1.1047,1.1046 3.6773,3.6774 7.5836,-7.5836 -1.1046,-1.1047 z"
           fill="#4472c4"
           transform="matrix(1,0,0,1.02667,575,385)"
           id="path84" />
        <path
           d="M 38.2812,54.6875 H 53.125 V 56.25 H 38.2812 Z"
           fill="#4472c4"
           transform="matrix(1,0,0,1.02667,575,385)"
           id="path86" />
        <path
           d="m 14.0625,68.75 h 46.875 V 6.25 H 14.0625 Z M 15.625,7.8125 h 43.75 v 59.375 h -43.75 z"
           fill="#4472c4"
           transform="matrix(1,0,0,1.02667,575,385)"
           id="path88" />
      </g>
    </g>
  </g>
  <rect
     x="460.97458"
     y="400.41525"
     width="35"
     height="11"
     stroke="#ffffff"
     stroke-width="1.33333"
     stroke-miterlimit="8"
     fill="#ffffff"
     id="rect96" />
  <text
     fill="#4472c4"
     font-family="Calibri, Calibri_MSFontService, sans-serif"
     font-weight="400"
     font-size="24px"
     id="text98"
     x="399.95657"
     y="448.91525">engineer_access</text>
  <path
     d="m 378.89557,144.08192 -89.92349,0.13551 0.004,2.66666 89.92341,-0.13551 z m -88.59809,-5.19983 -13.3229,6.68676 13.343,6.64656 z"
     fill="#4472c4"
     id="path100" />
  <g
     clip-path="url(#clip4)"
     id="g110"
     transform="translate(-136.52542,-35.084746)">
    <g
       clip-path="url(#clip5)"
       id="g108">
      <g
         clip-path="url(#clip6)"
         id="g106">
        <path
           d="m 126.583,101.344 c -2.052,-7.7577 -9.999,-12.388 -17.76,-10.3477 L 107.262,91.408 96.9848,52.3755 100.104,51.552 c 4.311,-1.1366 6.884,-5.5525 5.748,-9.8635 l -5.344,-20.2953 -24.981,6.5827 5.3491,20.3001 c 1.1367,4.3108 5.5525,6.8841 9.8635,5.748 l 3.1226,-0.8235 10.2868,39.0342 -1.562,0.4101 c -7.7569,2.0529 -12.3869,9.9992 -10.3475,17.7602 l 6.171,23.412 34.3485,-9.052 z M 89.9161,50.8981 c -2.5863,0.6814 -5.2354,-0.8626 -5.9174,-3.4487 L 79.4779,30.2751 98.207,25.3377 102.728,42.512 c 0.686,2.5856 -0.854,5.238 -3.4392,5.9242 -0.0016,5e-4 -0.0032,8e-4 -0.0048,0.0013 z m 5.4444,58.6759 c -1.5823,-6.036 2.0189,-12.213 8.0505,-13.8098 l 1.561,-0.4118 2.469,9.3646 c 0.237,0.86 1.126,1.364 1.986,1.127 0.845,-0.233 1.35,-1.098 1.136,-1.949 l -2.47,-9.3644 1.563,-0.4117 c 6.036,-1.5899 12.218,2.0144 13.808,8.0501 l 5.349,20.297 -28.103,7.405 z"
           transform="matrix(1.00645,0,0,1,229,316)"
           id="path102" />
        <path
           d="m 95.2604,67.0052 c 0,-7.8662 -16.6302,-12.1094 -32.2916,-12.1094 -15.6615,0 -32.2917,4.2432 -32.2917,12.1094 0.0035,0.5897 0.1028,1.1746 0.2938,1.7325 l 0.323,1.7179 c -7.5563,11.0389 -8.7188,22.7656 -2.8966,30.0134 3.5618,4.437 9.2241,6.596 15.7761,6.596 8.5718,0 18.663,-3.698 27.5416,-10.8181 1.8838,-1.5106 3.6678,-3.1415 5.341,-4.8825 0.0307,-0.0306 0.0565,-0.0629 0.084,-0.0952 0.0661,0.0387 0.1146,0.0678 0.1824,0.1033 0.7995,0.429 1.6921,0.6552 2.5995,0.6587 3.121,0 5.651,-2.53 5.651,-5.651 0,-3.121 -2.53,-5.651 -5.651,-5.651 -3.121,0 -5.6511,2.53 -5.6511,5.651 0.0065,0.9069 0.2337,1.7985 0.662,2.5979 -0.0747,0.0426 -0.1455,0.0918 -0.2115,0.1469 -1.5766,1.6396 -3.2577,3.1757 -5.0327,4.5983 -9.6116,7.7127 -20.623,11.1727 -28.9688,9.9237 l -5.6091,-30.29 c 5.9885,3.7716 17.1517,5.7576 27.8581,5.7576 10.7063,0 21.8695,-1.986 27.858,-5.7576 l -6.8329,36.903 c -1.7228,8.021 -13.9129,9.219 -21.0251,9.219 -8.5283,0 -19.0085,-1.571 -20.9267,-8.88 -1.1455,-0.087 -2.284,-0.249 -3.4083,-0.484 l 0.1614,0.839 c 1.2045,5.362 6.3808,11.754 24.1736,11.754 17.8976,0 23.0288,-6.4 24.1913,-11.815 l 7.8065,-42.1553 c 0.191,-0.5579 0.2903,-1.1428 0.2938,-1.7325 z M 79.9219,83.9583 c 1.3375,0 2.4219,1.0844 2.4219,2.4219 0,1.3375 -1.0844,2.4219 -2.4219,2.4219 -1.3375,0 -2.4219,-1.0844 -2.4219,-2.4219 0,-1.3375 1.0844,-2.4219 2.4219,-2.4219 z M 30.9112,98.4476 c -4.432,-5.5251 -3.875,-14.4005 1.2432,-23.3162 l 5.1247,27.6656 c -2.4908,-0.819 -4.6986,-2.327 -6.3679,-4.3494 z M 62.9688,75.8854 c -15.4791,0 -27.3043,-4.0607 -28.872,-8.0019 l -0.1776,-0.9542 c 0.1485,-4.1721 12.5146,-8.8043 29.0496,-8.8043 16.5349,0 28.901,4.6322 29.0495,8.8043 l -0.1776,0.9542 c -1.5677,3.9412 -13.3913,8.0019 -28.8719,8.0019 z"
           transform="matrix(1.00645,0,0,1,229,316)"
           id="path104" />
      </g>
    </g>
  </g>
  <g
     clip-path="url(#clip7)"
     id="g124"
     transform="translate(-136.52542,-35.084746)">
    <g
       clip-path="url(#clip8)"
       id="g122">
      <g
         clip-path="url(#clip9)"
         id="g120">
        <path
           d="m 148.725,136.245 c -3.293,-3.999 -7.179,-7.471 -11.523,-10.295 -3.814,-2.532 -7.829,-4.746 -12.005,-6.623 v -12.008 l 23.711,2.302 -11.593,-18.0903 7.339,1.9595 -9.067,-14.0136 5.431,0.6747 -16.145,-23.7701 -16.144,23.7696 5.43,-0.6747 -9.066,14.0136 7.338,-1.959 -11.592,18.0903 21.128,-2.05 v 10.411 c -2.058,-0.81 -4.358,-1.638 -7.042,-2.536 -6.398,-2.021 -12.984,-3.385 -19.6584,-4.072 -0.9887,-0.092 -2.0896,-0.175 -3.2355,-0.249 V 91.2847 l 9.4939,1.776 1.896,-2.9303 -13.0043,-2.4329 -29.9971,5.6093 1.9798,2.9149 26.4027,-4.937 v 19.6923 c -5.5532,-0.227 -11.1114,0.307 -16.5196,1.588 -2.5859,0.615 -5.1102,1.464 -7.5413,2.539 -1.6619,0.758 -3.1633,1.556 -4.5815,2.373 1.112,0.581 2.1839,1.224 3.2259,1.888 0.8583,-0.45 1.7499,-0.892 2.6964,-1.324 2.2536,-0.993 4.5932,-1.778 6.9897,-2.346 7.187,-1.588 14.5889,-1.962 21.8994,-1.108 6.4269,0.661 12.7699,1.974 18.9299,3.92 7.644,2.318 14.908,5.742 21.561,10.162 3.662,2.4 6.985,5.283 9.879,8.571 h 4.161 z m -41.579,-30.481 12.497,-19.5008 -7.287,1.9452 8.274,-12.7901 -5.225,0.6488 9.468,-13.9379 9.469,13.9383 -5.226,-0.6487 8.275,12.7901 -7.288,-1.9457 12.497,19.5008 -17.727,-1.72 z"
           transform="matrix(1.00645,0,0,1,229,83)"
           id="path112" />
        <path
           d="m 74.1197,136.362 c -1.6275,-2.343 -3.456,-4.539 -5.465,-6.565 -3.6185,-3.702 -7.8745,-6.721 -12.5641,-8.913 -2.2339,-0.922 -4.5981,-1.49 -7.0073,-1.683 v -8.371 l 13.5759,1.318 -6.5427,-9.041 3.7038,0.671 -5.2537,-8.6629 3.1896,0.0178 -10.2866,-15.1448 -10.2882,15.1448 3.1898,-0.0178 -5.254,8.6639 3.7037,-0.671 -6.5417,9.041 13.5758,-1.318 v 8.183 c -2.7263,-0.055 -5.4521,0.126 -8.147,0.541 -2.8751,0.43 -5.712,1.085 -8.484,1.96 v -14.743 l 1.9039,-3.059 -3.5185,-0.34 -15.4884,1.503 11.2075,-17.4857 -6.5045,1.7358 7.3444,-11.3534 -4.6545,0.5784 8.0955,-11.9175 8.0949,11.9171 -4.653,-0.578 6.8381,10.5705 1.9698,-2.8996 -2.3371,-3.6131 4.4188,0.5489 0.2025,-0.298 -14.534,-21.395 -14.771,21.7484 4.8599,-0.6035 L 9.56221,94.4089 16.1174,92.6587 5.81363,108.733 25.9948,106.774 v 15.937 c -2.4069,0.984 -4.748,2.123 -7.0088,3.408 -4.6627,2.721 -8.9084,6.101 -12.60597,10.035 -0.3092,0.341 -0.98732,1.086 -0.98732,1.086 h 4.43268 c 3.21381,-3.216 6.82531,-6.008 10.74671,-8.308 5.4161,-3.218 11.4197,-5.323 17.6595,-6.191 3.5617,-0.585 11.6078,-1.108 16.5446,1.092 4.3043,2.029 8.2147,4.806 11.5498,8.201 1.5934,1.64 3.0822,3.379 4.4573,5.206 h 3.9585 c 0,0 -0.3248,-0.471 -0.6221,-0.878 z m -27.976,-37.8619 -4.549,0.8234 4.5315,-7.4699 -2.8239,0.0162 4.1673,-6.1354 4.1656,6.1344 -2.8239,-0.0161 4.5315,7.4698 -4.5488,-0.8234 7.051,9.7429 -8.3756,-0.813 -8.3787,0.813 z"
           transform="matrix(1.00645,0,0,1,229,83)"
           id="path114" />
        <path
           d="m 115.81,63.9782 -9.994,-15.4493 8.768,1.0895 -24.1673,-35.5791 -24.1665,35.5791 8.7682,-1.0895 -14.4965,22.4086 11.9186,-3.1822 -14.2604,22.2545 1.973,2.9053 19.4995,-30.4277 -11.8682,3.169 13.7051,-21.1851 -8.5635,1.0633 17.4907,-25.748 17.4903,25.748 -8.5617,-1.0633 13.6817,21.1499 c 0.013,0.0192 0.005,0.0302 -0.017,0.0244 l -11.828,-3.1582 7.592,11.8488 1.974,-2.9062 -2.355,-3.675 4.107,1.0963 z"
           transform="matrix(1.00645,0,0,1,229,83)"
           id="path116" />
        <path
           d="m 31.8913,87.3893 3.2259,5.0343 2.3993,-3.5327 z"
           transform="matrix(1.00645,0,0,1,229,83)"
           id="path118" />
      </g>
    </g>
  </g>
  <text
     font-family="Calibri, Calibri_MSFontService, sans-serif"
     font-weight="400"
     font-size="24px"
     id="text132"
     x="64.011581"
     y="39.915253">External environment<tspan
   font-size="24px"
   x="49.415981"
   y="274.91525"
   id="tspan126">arn:aws:s3:::landing</tspan>-<tspan
   font-size="24px"
   x="252.70258"
   y="274.91525"
   id="tspan128">zone</tspan><tspan
   font-size="24px"
   x="69.434158"
   y="476.91525"
   id="tspan130">arn:aws:s3:::analysis</tspan></text>
  <g
     clip-path="url(#clip10)"
     id="g142"
     transform="translate(-136.52542,-35.084746)">
    <g
       clip-path="url(#clip11)"
       id="g140">
      <g
         clip-path="url(#clip12)"
         id="g138">
        <path
           d="m 126.583,101.344 c -2.052,-7.7577 -9.999,-12.388 -17.76,-10.3477 L 107.262,91.408 96.9848,52.3755 100.104,51.552 c 4.311,-1.1366 6.884,-5.5525 5.748,-9.8635 l -5.344,-20.2953 -24.981,6.5827 5.3491,20.3001 c 1.1367,4.3108 5.5525,6.8841 9.8635,5.748 l 3.1226,-0.8235 10.2868,39.0342 -1.562,0.4101 c -7.7569,2.0529 -12.3869,9.9992 -10.3475,17.7602 l 6.171,23.412 34.3485,-9.052 z M 89.9161,50.8981 c -2.5863,0.6814 -5.2354,-0.8626 -5.9174,-3.4487 L 79.4779,30.2751 98.207,25.3377 102.728,42.512 c 0.686,2.5856 -0.854,5.238 -3.4392,5.9242 -0.0016,5e-4 -0.0032,8e-4 -0.0048,0.0013 z m 5.4444,58.6759 c -1.5823,-6.036 2.0189,-12.213 8.0505,-13.8098 l 1.561,-0.4118 2.469,9.3646 c 0.237,0.86 1.126,1.364 1.986,1.127 0.845,-0.233 1.35,-1.098 1.136,-1.949 l -2.47,-9.3644 1.563,-0.4117 c 6.036,-1.5899 12.218,2.0144 13.808,8.0501 l 5.349,20.297 -28.103,7.405 z"
           transform="matrix(1.00645,0,0,1,229,516)"
           id="path134" />
        <path
           d="m 95.2604,67.0052 c 0,-7.8662 -16.6302,-12.1094 -32.2916,-12.1094 -15.6615,0 -32.2917,4.2432 -32.2917,12.1094 0.0035,0.5897 0.1028,1.1746 0.2938,1.7325 l 0.323,1.7179 c -7.5563,11.0389 -8.7188,22.7656 -2.8966,30.0134 3.5618,4.437 9.2241,6.596 15.7761,6.596 8.5718,0 18.663,-3.698 27.5416,-10.8181 1.8838,-1.5106 3.6678,-3.1415 5.341,-4.8825 0.0307,-0.0306 0.0565,-0.0629 0.084,-0.0952 0.0661,0.0387 0.1146,0.0678 0.1824,0.1033 0.7995,0.429 1.6921,0.6552 2.5995,0.6587 3.121,0 5.651,-2.53 5.651,-5.651 0,-3.121 -2.53,-5.651 -5.651,-5.651 -3.121,0 -5.6511,2.53 -5.6511,5.651 0.0065,0.9069 0.2337,1.7985 0.662,2.5979 -0.0747,0.0426 -0.1455,0.0918 -0.2115,0.1469 -1.5766,1.6396 -3.2577,3.1757 -5.0327,4.5983 -9.6116,7.7127 -20.623,11.1727 -28.9688,9.9237 l -5.6091,-30.29 c 5.9885,3.7716 17.1517,5.7576 27.8581,5.7576 10.7063,0 21.8695,-1.986 27.858,-5.7576 l -6.8329,36.903 c -1.7228,8.021 -13.9129,9.219 -21.0251,9.219 -8.5283,0 -19.0085,-1.571 -20.9267,-8.88 -1.1455,-0.087 -2.284,-0.249 -3.4083,-0.484 l 0.1614,0.839 c 1.2045,5.362 6.3808,11.754 24.1736,11.754 17.8976,0 23.0288,-6.4 24.1913,-11.815 l 7.8065,-42.1553 c 0.191,-0.5579 0.2903,-1.1428 0.2938,-1.7325 z M 79.9219,83.9583 c 1.3375,0 2.4219,1.0844 2.4219,2.4219 0,1.3375 -1.0844,2.4219 -2.4219,2.4219 -1.3375,0 -2.4219,-1.0844 -2.4219,-2.4219 0,-1.3375 1.0844,-2.4219 2.4219,-2.4219 z M 30.9112,98.4476 c -4.432,-5.5251 -3.875,-14.4005 1.2432,-23.3162 l 5.1247,27.6656 c -2.4908,-0.819 -4.6986,-2.327 -6.3679,-4.3494 z M 62.9688,75.8854 c -15.4791,0 -27.3043,-4.0607 -28.872,-8.0019 l -0.1776,-0.9542 c 0.1485,-4.1721 12.5146,-8.8043 29.0496,-8.8043 16.5349,0 28.901,4.6322 29.0495,8.8043 l -0.1776,0.9542 c -1.5677,3.9412 -13.3913,8.0019 -28.8719,8.0019 z"
           transform="matrix(1.00645,0,0,1,229,516)"
           id="path136" />
      </g>
    </g>
  </g>
  <g
     clip-path="url(#clip13)"
     id="g152"
     transform="translate(-136.52542,-35.084746)">
    <g
       clip-path="url(#clip14)"
       id="g150">
      <g
         clip-path="url(#clip15)"
         id="g148">
        <path
           d="m 612,322.333 c 5.477,0 9.917,4.44 9.917,9.917 0,5.477 -4.44,9.917 -9.917,9.917 -5.477,0 -9.917,-4.44 -9.917,-9.917 0.006,-5.475 4.442,-9.911 9.917,-9.917 m 0,-1.416 c -6.259,0 -11.333,5.074 -11.333,11.333 0,6.259 5.074,11.333 11.333,11.333 6.259,0 11.333,-5.074 11.333,-11.333 0,-6.259 -5.074,-11.333 -11.333,-11.333 z"
           stroke="#4472c4"
           stroke-width="1.69154"
           id="path144" />
        <path
           d="m 634.667,369.083 h -1.417 v -10.979 c -0.034,-1.504 -0.743,-2.914 -1.93,-3.838 -3.107,-2.384 -6.664,-4.114 -10.457,-5.087 -2.871,-0.884 -5.858,-1.337 -8.863,-1.346 -3.004,0.052 -5.987,0.505 -8.871,1.346 -3.754,1.1 -7.295,2.824 -10.475,5.1 -1.176,0.926 -1.874,2.329 -1.904,3.825 v 10.979 h -1.417 v -10.979 c 0.035,-1.935 0.94,-3.751 2.462,-4.945 3.324,-2.385 7.026,-4.191 10.952,-5.342 3.008,-0.876 6.12,-1.347 9.253,-1.4 3.139,0.007 6.26,0.48 9.261,1.401 3.974,1.024 7.699,2.842 10.95,5.346 1.52,1.194 2.421,3.008 2.456,4.94 z"
           stroke="#4472c4"
           stroke-width="1.69154"
           id="path146" />
      </g>
    </g>
  </g>
  <text
     fill="#4472c4"
     font-family="Calibri, Calibri_MSFontService, sans-serif"
     font-weight="400"
     font-size="24px"
     id="text156"
     x="318.22757"
     y="137.91525">GET<tspan
   font-size="24px"
   x="431.70157"
   y="271.91525"
   id="tspan154">engineer</tspan></text>
  <path
     d="m 376.97458,145.41525 0.218,412.581"
     stroke="#4472c4"
     stroke-width="3"
     stroke-miterlimit="8"
     fill="none"
     fill-rule="evenodd"
     id="path158" />
  <path
     d="m 379.16958,359.08192 -90.1953,9e-5 v 2.66667 l 90.1953,-10e-5 z m -88.8619,-5.33324 -13.3331,6.66667 13.3331,6.66666 z"
     fill="#4472c4"
     id="path160" />
  <text
     fill="#4472c4"
     font-family="Calibri, Calibri_MSFontService, sans-serif"
     font-weight="400"
     font-size="24px"
     id="text164"
     x="317.95557"
     y="351.91525">GET<tspan
   font-size="24px"
   x="318.79703"
   y="383.91525"
   id="tspan162">PUT</tspan></text>
  <path
     d="m 380.16958,557.08192 -90.1953,9e-5 v 2.66667 l 90.1953,-1e-4 z m -88.8619,-5.33324 -13.3331,6.66667 13.3331,6.66666 z"
     fill="#4472c4"
     id="path166" />
  <text
     fill="#4472c4"
     font-family="Calibri, Calibri_MSFontService, sans-serif"
     font-weight="400"
     font-size="24px"
     id="text172"
     x="318.79657"
     y="549.91522">GET<tspan
   font-size="24px"
   x="318.79657"
   y="581.91522"
   id="tspan168">PUT</tspan><tspan
   font-size="24px"
   x="318.79657"
   y="167.91525"
   id="tspan170">PUT</tspan></text>
  <path
     d="m 693.16958,359.08192 -90.1953,9e-5 v 2.66667 l 90.1953,-10e-5 z m -88.8619,-5.33324 -13.3331,6.66667 13.3331,6.66666 z"
     fill="#70ad47"
     id="path174" />
  <text
     fill="#70ad47"
     font-family="Calibri, Calibri_MSFontService, sans-serif"
     font-weight="400"
     font-size="24px"
     id="text176"
     x="631.93256"
     y="351.91525">GET</text>
  <path
     d="m 694.16958,557.08192 -90.1953,9e-5 v 2.66667 l 90.1953,-1e-4 z m -88.8619,-5.33324 -13.3331,6.66667 13.3331,6.66666 z"
     fill="#70ad47"
     id="path178" />
  <text
     fill="#70ad47"
     font-family="Calibri, Calibri_MSFontService, sans-serif"
     font-weight="400"
     font-size="24px"
     id="text182"
     x="632.7746"
     y="549.91522">GET<tspan
   font-size="24px"
   x="632.7746"
   y="581.91522"
   id="tspan180">PUT</tspan></text>
  <path
     d="m 692.97458,359.41525 v 198.797"
     stroke="#70ad47"
     stroke-width="3"
     stroke-miterlimit="8"
     fill="none"
     fill-rule="evenodd"
     id="path184" />
  <g
     clip-path="url(#clip16)"
     id="g208"
     transform="translate(-136.52542,-35.084746)">
    <g
       clip-path="url(#clip17)"
       id="g206">
      <g
         clip-path="url(#clip18)"
         id="g204">
        <path
           d="m 25.7812,21.5516 -2.5726,-2.5727 -1.1047,1.1047 3.6773,3.6773 7.5836,-7.5836 -1.1046,-1.1046 z"
           stroke="#70ad47"
           stroke-width="0.781207"
           fill="#4472c4"
           transform="matrix(1,0,0,1.02667,882,490)"
           id="path186" />
        <path
           d="M 38.2812,19.5312 H 53.125 v 1.5626 H 38.2812 Z"
           stroke="#70ad47"
           stroke-width="0.781207"
           fill="#4472c4"
           transform="matrix(1,0,0,1.02667,882,490)"
           id="path188" />
        <path
           d="m 25.7812,33.2703 -2.5726,-2.5726 -1.1047,1.1046 3.6773,3.6774 7.5836,-7.5836 -1.1046,-1.1047 z"
           stroke="#70ad47"
           stroke-width="0.781207"
           fill="#4472c4"
           transform="matrix(1,0,0,1.02667,882,490)"
           id="path190" />
        <path
           d="M 38.2812,31.25 H 53.125 v 1.5625 H 38.2812 Z"
           stroke="#70ad47"
           stroke-width="0.781207"
           fill="#4472c4"
           transform="matrix(1,0,0,1.02667,882,490)"
           id="path192" />
        <path
           d="m 25.7812,44.9891 -2.5726,-2.5727 -1.1047,1.1047 3.6773,3.6773 7.5836,-7.5836 -1.1046,-1.1046 z"
           stroke="#70ad47"
           stroke-width="0.781207"
           fill="#4472c4"
           transform="matrix(1,0,0,1.02667,882,490)"
           id="path194" />
        <path
           d="M 38.2812,42.9688 H 53.125 v 1.5624 H 38.2812 Z"
           stroke="#70ad47"
           stroke-width="0.781207"
           fill="#4472c4"
           transform="matrix(1,0,0,1.02667,882,490)"
           id="path196" />
        <path
           d="m 25.7812,56.7078 -2.5726,-2.5726 -1.1047,1.1046 3.6773,3.6774 7.5836,-7.5836 -1.1046,-1.1047 z"
           stroke="#70ad47"
           stroke-width="0.781207"
           fill="#4472c4"
           transform="matrix(1,0,0,1.02667,882,490)"
           id="path198" />
        <path
           d="M 38.2812,54.6875 H 53.125 V 56.25 H 38.2812 Z"
           stroke="#70ad47"
           stroke-width="0.781207"
           fill="#4472c4"
           transform="matrix(1,0,0,1.02667,882,490)"
           id="path200" />
        <path
           d="m 14.0625,68.75 h 46.875 V 6.25 H 14.0625 Z M 15.625,7.8125 h 43.75 v 59.375 h -43.75 z"
           stroke="#70ad47"
           stroke-width="0.781207"
           fill="#4472c4"
           transform="matrix(1,0,0,1.02667,882,490)"
           id="path202" />
      </g>
    </g>
  </g>
  <text
     fill="#70ad47"
     font-family="Calibri, Calibri_MSFontService, sans-serif"
     font-weight="400"
     font-size="24px"
     id="text212"
     x="715.48059"
     y="552.91522">analyst_access</text>
  <g
     clip-path="url(#clip19)"
     id="g222"
     transform="translate(-136.52542,-35.084746)">
    <g
       clip-path="url(#clip20)"
       id="g220">
      <g
         clip-path="url(#clip21)"
         id="g218">
        <path
           d="m 919,426.333 c 5.477,0 9.917,4.44 9.917,9.917 0,5.477 -4.44,9.917 -9.917,9.917 -5.477,0 -9.917,-4.44 -9.917,-9.917 0.006,-5.475 4.442,-9.911 9.917,-9.917 m 0,-1.416 c -6.259,0 -11.333,5.074 -11.333,11.333 0,6.259 5.074,11.333 11.333,11.333 6.259,0 11.333,-5.074 11.333,-11.333 0,-6.259 -5.074,-11.333 -11.333,-11.333 z"
           stroke="#70ad47"
           stroke-width="1.69154"
           id="path214" />
        <path
           d="m 941.667,473.083 h -1.417 v -10.979 c -0.034,-1.504 -0.743,-2.914 -1.93,-3.838 -3.107,-2.384 -6.664,-4.114 -10.457,-5.087 -2.871,-0.884 -5.858,-1.337 -8.863,-1.346 -3.004,0.052 -5.987,0.505 -8.871,1.346 -3.754,1.1 -7.295,2.824 -10.475,5.1 -1.176,0.926 -1.874,2.329 -1.904,3.825 v 10.979 h -1.417 v -10.979 c 0.035,-1.935 0.94,-3.751 2.462,-4.945 3.324,-2.385 7.026,-4.191 10.952,-5.342 3.008,-0.876 6.12,-1.347 9.253,-1.4 3.139,0.007 6.26,0.48 9.261,1.401 3.974,1.024 7.699,2.842 10.95,5.346 1.52,1.194 2.421,3.008 2.456,4.94 z"
           stroke="#70ad47"
           stroke-width="1.69154"
           id="path216" />
      </g>
    </g>
  </g>
  <text
     fill="#70ad47"
     font-family="Calibri, Calibri_MSFontService, sans-serif"
     font-weight="400"
     font-size="24px"
     id="text224"
     x="750.34259"
     y="376.91525">analyst</text>
  <text
     fill="#70ad47"
     font-family="Calibri, Calibri_MSFontService, sans-serif"
     font-weight="400"
     font-size="24px"
     id="text182-1"
     x="565.55298"
     y="601.97095"
     inkscape:transform-center-x="-21.355932"
     inkscape:transform-center-y="-24.40678"><tspan
       sodipodi:role="line"
       id="tspan542"
       x="565.55298"
       y="601.97095">source restriction</tspan></text>
</svg>
